<svg xmlns="http://www.w3.org/2000/svg" width="375" viewBox="0 0 375 375" height="375" version="1.0"><defs><clipPath id="a"><path d="M 26.636719 0 L 348.386719 0 L 348.386719 375 L 26.636719 375 Z M 26.636719 0"/></clipPath></defs><g clip-path="url(#a)"><path fill="#4F6FFF" d="M 31.027344 94.78125 C 30.359375 95.199219 29.753906 95.699219 29.210938 96.269531 C 28.667969 96.84375 28.203125 97.476562 27.820312 98.167969 C 27.4375 98.855469 27.144531 99.582031 26.945312 100.347656 C 26.742188 101.113281 26.640625 101.890625 26.636719 102.679688 L 26.636719 276.566406 C 26.636719 277.375 26.742188 278.167969 26.953125 278.945312 C 27.160156 279.726562 27.460938 280.464844 27.863281 281.164062 C 28.261719 281.863281 28.742188 282.503906 29.308594 283.078125 C 29.875 283.652344 30.503906 284.148438 31.195312 284.558594 L 181.925781 373.597656 C 182.636719 374.007812 183.394531 374.320312 184.1875 374.535156 C 184.984375 374.746094 185.796875 374.855469 186.621094 374.855469 C 187.445312 374.855469 188.253906 374.746094 189.050781 374.535156 C 189.847656 374.320312 190.601562 374.007812 191.316406 373.597656 L 343.460938 284.527344 C 344.160156 284.121094 344.796875 283.628906 345.367188 283.054688 C 345.9375 282.480469 346.425781 281.84375 346.828125 281.140625 C 347.230469 280.4375 347.539062 279.695312 347.746094 278.914062 C 347.957031 278.132812 348.0625 277.335938 348.0625 276.527344 L 348.355469 102.625 C 348.351562 101.832031 348.246094 101.046875 348.042969 100.277344 C 347.839844 99.507812 347.542969 98.773438 347.152344 98.082031 C 346.765625 97.386719 346.292969 96.75 345.742188 96.175781 C 345.191406 95.601562 344.578125 95.105469 343.898438 94.6875 L 191.492188 1.464844 C 190.761719 1.011719 189.980469 0.667969 189.152344 0.433594 C 188.324219 0.195312 187.480469 0.078125 186.621094 0.078125 C 185.757812 0.078125 184.914062 0.195312 184.085938 0.433594 C 183.257812 0.667969 182.476562 1.011719 181.746094 1.464844 Z M 186.671875 20.320312 L 329.78125 107.882812 L 329.523438 271.246094 L 186.671875 354.816406 L 45.230469 271.269531 L 45.230469 107.863281 Z M 186.671875 20.320312"/></g><path fill="#4F6FFF" d="M 66.046875 263.976562 C 100.027344 283.464844 140.125 306.519531 180.160156 329.703125 C 185.117188 332.574219 189.289062 332.5625 194.171875 329.703125 C 206.234375 322.664062 218.308594 315.640625 230.390625 308.628906 C 256.097656 293.6875 282.683594 278.246094 308.644531 262.773438 C 311.210938 261.242188 313.277344 256.347656 313.578125 252.71875 C 314.058594 247.105469 313.976562 241.3125 313.914062 235.710938 C 313.859375 231.746094 313.808594 227.65625 313.914062 223.609375 C 314.039062 219.832031 312.871094 217.871094 309.425781 215.847656 C 296.210938 208.195312 283.0625 200.457031 269.984375 192.632812 C 259.511719 186.4375 249.023438 180.253906 238.527344 174.082031 C 223.921875 165.527344 209.238281 157.066406 194.445312 148.542969 L 173.378906 136.398438 L 174.976562 134.855469 C 182.113281 127.957031 188.363281 127.175781 196.542969 132.058594 C 231.765625 153.207031 267.847656 173.789062 298.878906 191.382812 C 302.363281 193.351562 307.714844 194.175781 309.519531 193.019531 C 312.253906 191.234375 314.277344 185.933594 314.382812 182.292969 C 314.675781 172.234375 314.632812 161.980469 314.601562 152.039062 C 314.601562 142.792969 314.539062 133.257812 314.769531 123.867188 C 314.933594 117.210938 312.460938 113.144531 306.234375 109.835938 C 298.585938 105.757812 290.957031 101.363281 283.582031 97.105469 L 265.050781 86.464844 C 240.949219 72.664062 216.882812 58.828125 192.847656 44.953125 C 188.746094 42.59375 185.542969 42.5625 181.640625 44.816406 C 168.730469 52.355469 155.800781 59.890625 142.847656 67.414062 C 117.808594 82.019531 91.910156 97.066406 66.566406 112.101562 C 65.0625 113.164062 63.824219 114.476562 62.851562 116.039062 C 61.875 117.605469 61.242188 119.296875 60.953125 121.113281 C 60.257812 131.496094 60.257812 141.875 60.953125 152.257812 C 61.121094 153.570312 61.539062 154.800781 62.203125 155.945312 C 62.867188 157.089844 63.726562 158.0625 64.78125 158.859375 C 78.460938 167.542969 92.652344 175.878906 104.714844 182.855469 C 128 196.386719 151.335938 209.890625 174.714844 223.367188 L 201.433594 238.800781 L 199.734375 240.34375 C 193.964844 245.632812 187.351562 249.617188 178.367188 243.265625 C 172.398438 239.222656 166.242188 235.503906 159.886719 232.101562 C 157.332031 230.683594 154.785156 229.253906 152.261719 227.78125 L 135.679688 218.171875 C 116.191406 206.832031 96.03125 195.105469 75.988281 183.941406 C 73.578125 182.695312 71.015625 182.078125 68.300781 182.085938 C 66.914062 182.027344 65.585938 182.28125 64.3125 182.835938 C 62.226562 183.878906 60.484375 189.179688 60.402344 192.96875 C 60.160156 204.445312 60.203125 216.023438 60.253906 227.28125 C 60.253906 236.046875 60.316406 244.808594 60.253906 253.582031 C 60.148438 258.570312 61.851562 261.566406 66.046875 263.976562 Z M 66.046875 263.976562"/></svg>